<svg width="38" height="35" viewBox="0 0 38 35" fill="none" xmlns="http://www.w3.org/2000/svg">
<path d="M22.2688 23.8153L26.1573 19.9268L37.15 30.9195L33.2615 34.808L22.2688 23.8153ZM29.0833 14.3333C32.6216 14.3333 35.5 11.455 35.5 7.91662C35.5 6.85329 35.2066 5.86329 34.7483 4.98329L29.7983 9.93329L27.0666 7.20162L32.0166 2.25162C31.1366 1.79329 30.1466 1.49996 29.0833 1.49996C25.545 1.49996 22.6666 4.37829 22.6666 7.91662C22.6666 8.66829 22.8133 9.38329 23.0516 10.0433L19.66 13.435L16.3966 10.1716L17.6983 8.86996L15.1133 6.28496L19 2.39829C17.9687 1.36832 16.5708 0.789795 15.1133 0.789795C13.6558 0.789795 12.2579 1.36832 11.2266 2.39829L4.73664 8.88829L7.32164 11.4733H2.15164L0.849976 12.775L7.33998 19.265L8.64164 17.9633V12.775L11.2266 15.36L12.5283 14.0583L15.7916 17.3216L2.20664 30.9066L6.09331 34.7933L26.9566 13.9483C27.6166 14.1866 28.3316 14.3333 29.0833 14.3333Z" fill="#161616"/>
</svg>
