<svg width="38" height="30" viewBox="0 0 38 30" fill="none" xmlns="http://www.w3.org/2000/svg">
<path d="M19 0.333252H6.16666C4.70797 0.333252 3.30902 0.912715 2.27757 1.94416C1.24612 2.97562 0.666656 4.37456 0.666656 5.83325V20.4999C0.666656 21.9586 1.24612 23.3576 2.27757 24.389C3.30902 25.4205 4.70797 25.9999 6.16666 25.9999L4.33332 27.8333V29.6666H6.16666L9.83332 25.9449L13.5 25.9999V16.8333H4.33332V3.99992H20.8333V7.66659H24.5V5.83325C24.5 4.37456 23.9205 2.97562 22.8891 1.94416C21.8576 0.912715 20.4587 0.333252 19 0.333252ZM6.16666 18.6666C6.65289 18.6666 7.1192 18.8597 7.46302 19.2036C7.80684 19.5474 7.99999 20.0137 7.99999 20.4999C7.99999 20.9861 7.80684 21.4525 7.46302 21.7963C7.1192 22.1401 6.65289 22.3333 6.16666 22.3333C5.68043 22.3333 5.21411 22.1401 4.87029 21.7963C4.52648 21.4525 4.33332 20.9861 4.33332 20.4999C4.33332 20.0137 4.52648 19.5474 4.87029 19.2036C5.21411 18.8597 5.68043 18.6666 6.16666 18.6666ZM34.7117 10.7099C34.455 9.97659 33.7583 9.49992 32.9333 9.49992H19.7517C18.9083 9.49992 18.23 9.97659 17.955 10.7099L15.3333 18.2449V28.3466C15.3333 29.0433 15.92 29.6666 16.6167 29.6666H17.7533C18.45 29.6666 19 28.9699 19 28.2733V25.9999H33.6667V28.2733C33.6667 28.9699 34.235 29.6666 34.9317 29.6666H36.05C36.7467 29.6666 37.3333 29.0433 37.3333 28.3466V18.2449L34.7117 10.7099ZM19.7517 11.3333H32.9333L34.8217 16.8333H17.8633L19.7517 11.3333ZM19 22.3333C18.5138 22.3333 18.0474 22.1401 17.7036 21.7963C17.3598 21.4525 17.1667 20.9861 17.1667 20.4999C17.1667 20.0137 17.3598 19.5474 17.7036 19.2036C18.0474 18.8597 18.5138 18.6666 19 18.6666C19.4862 18.6666 19.9525 18.8597 20.2964 19.2036C20.6402 19.5474 20.8333 20.0137 20.8333 20.4999C20.8333 20.9861 20.6402 21.4525 20.2964 21.7963C19.9525 22.1401 19.4862 22.3333 19 22.3333ZM33.6667 22.3333C33.1804 22.3333 32.7141 22.1401 32.3703 21.7963C32.0265 21.4525 31.8333 20.9861 31.8333 20.4999C31.8333 20.0137 32.0265 19.5474 32.3703 19.2036C32.7141 18.8597 33.1804 18.6666 33.6667 18.6666C34.1529 18.6666 34.6192 18.8597 34.963 19.2036C35.3068 19.5474 35.5 20.0137 35.5 20.4999C35.5 20.9861 35.3068 21.4525 34.963 21.7963C34.6192 22.1401 34.1529 22.3333 33.6667 22.3333Z" fill="#161616"/>
</svg>
