<svg width="50" height="50" viewBox="0 0 50 50" fill="none" xmlns="http://www.w3.org/2000/svg">
<path d="M46.725 30.8599L42.4075 27.0149C41.1575 25.9024 41.1575 24.0799 42.4075 22.9674L46.725 19.1199C47.975 18.0074 47.6425 16.9724 45.985 16.8099L40.26 16.2674C38.605 16.1124 37.71 14.6849 38.2825 13.1024L41.32 4.64494C41.89 3.05744 41.1925 2.48244 39.7725 3.35994L33.02 7.53494C32.6853 7.74378 32.3116 7.88214 31.9216 7.94156C31.5316 8.00098 31.1336 7.98021 30.7519 7.88051C30.3702 7.78082 30.0129 7.60431 29.7018 7.36177C29.3907 7.11923 29.1323 6.81577 28.9425 6.46994L26.4975 2.10494C25.675 0.634942 24.3175 0.629942 23.48 2.08494L21.2075 6.03494C20.365 7.49744 18.4375 8.11744 16.925 7.42494L12.925 5.58994C11.405 4.88994 10.2425 5.69494 10.3325 7.37994L10.5475 11.4174C10.64 13.1024 9.395 14.8349 7.7875 15.2699L3.925 16.3049C2.32 16.7399 2.025 18.0049 3.275 19.1174L7.5925 22.9649C8.8425 24.0774 8.8425 25.8999 7.5925 27.0124L3.275 30.8599C2.025 31.9724 2.355 33.0524 4.0075 33.2524L9.245 33.8874C10.8975 34.0874 11.8175 35.5624 11.29 37.1649L8.605 45.3099C8.0775 46.9124 8.83 47.5324 10.275 46.6974L16.4325 43.1324C17.1507 42.7341 17.9917 42.6179 18.791 42.8065C19.5904 42.9951 20.2906 43.475 20.755 44.1524L23.31 47.9999C24.24 49.3974 25.6375 49.3224 26.41 47.8299L28.6575 43.4974C29.0317 42.7787 29.6718 42.2345 30.4414 41.9809C31.2111 41.7273 32.0493 41.7844 32.7775 42.1399L37.1125 44.3074C38.6075 45.0499 39.755 44.2824 39.665 42.6024L39.4475 38.5599C39.36 36.8749 40.6 35.1474 42.2125 34.7124L46.07 33.6724C47.68 33.2374 47.975 31.9724 46.725 30.8599ZM27.5 34.9999H22.5V29.9999H27.5V34.9999ZM27.5 27.4999H22.5V14.9999H27.5V27.4999Z" fill="#2E466D"/>
</svg>
