<svg width="50" height="50" viewBox="0 0 50 50" fill="none" xmlns="http://www.w3.org/2000/svg">
<path d="M33.7031 43.3594C30.9843 44.6522 28.0105 45.3196 25 45.3125C13.8 45.3125 4.68748 36.2 4.68748 25C4.68748 20.1953 6.33905 15.6578 9.37498 12.0188V15.625H12.5V6.25H3.12498V9.375H7.56561C3.69151 13.6558 1.55127 19.2264 1.56248 25C1.56248 37.9234 12.0765 48.4375 25 48.4375C28.4754 48.4447 31.9083 47.6738 35.0469 46.1813L33.7031 43.3594Z" fill="#2E466D"/>
<path d="M32.8125 14.0625C27.875 14.0625 23.8266 17.9016 23.4719 22.75C21.7541 21.1826 19.5129 20.3133 17.1875 20.3125H10.9375V26.5625C10.9375 31.7328 15.1437 35.9375 20.3125 35.9375H23.4375V42.1875H26.5625V29.6875H29.6875C34.8563 29.6875 39.0625 25.4828 39.0625 20.3125V14.0625H32.8125ZM20.3125 32.8125C16.8656 32.8125 14.0625 30.0094 14.0625 26.5625V23.4375H17.1875C20.6344 23.4375 23.4375 26.2406 23.4375 29.6875V30.6031L19.8547 27.0203L17.6453 29.2297L21.2281 32.8125H20.3125ZM35.9375 20.3125C35.9375 23.7594 33.1344 26.5625 29.6875 26.5625H28.7719L32.3547 22.9797L30.1453 20.7703L26.5625 24.3531V23.4375C26.5625 19.9906 29.3656 17.1875 32.8125 17.1875H35.9375V20.3125Z" fill="#2E466D"/>
<path d="M48.4375 25.0001C48.4375 12.0766 37.9234 1.56255 25 1.56255C21.5246 1.55531 18.0917 2.32625 14.9531 3.8188L16.2969 6.64068C19.0157 5.34786 21.9895 4.68048 25 4.68755C36.2 4.68755 45.3125 13.8001 45.3125 25.0001C45.3125 29.8047 43.6609 34.3422 40.625 37.9813V34.3751H37.5V43.7501H46.875V40.6251H42.4344C46.3085 36.3442 48.4487 30.7736 48.4375 25.0001Z" fill="#2E466D"/>
</svg>
