<svg width="51" height="50" viewBox="0 0 51 50" fill="none" xmlns="http://www.w3.org/2000/svg">
<path fill-rule="evenodd" clip-rule="evenodd" d="M25.5 7.8125H38C39.2432 7.8125 40.4355 8.30636 41.3146 9.18544C42.1936 10.0645 42.6875 11.2568 42.6875 12.5V25C42.6875 26.2432 42.1936 27.4355 41.3146 28.3146C40.4355 29.1936 39.2432 29.6875 38 29.6875H34.875V25C34.875 22.5136 33.8873 20.129 32.1291 18.3709C30.371 16.6127 27.9864 15.625 25.5 15.625H20.8125V12.5C20.8125 11.2568 21.3064 10.0645 22.1854 9.18544C23.0645 8.30636 24.2568 7.8125 25.5 7.8125ZM16.125 15.625V12.5C16.125 10.0136 17.1127 7.62903 18.8709 5.87087C20.629 4.11272 23.0136 3.125 25.5 3.125H38C40.4864 3.125 42.871 4.11272 44.6291 5.87087C46.3873 7.62903 47.375 10.0136 47.375 12.5V25C47.375 27.4864 46.3873 29.871 44.6291 31.6291C42.871 33.3873 40.4864 34.375 38 34.375H34.875V37.5C34.875 39.9864 33.8873 42.371 32.1291 44.1291C30.371 45.8873 27.9864 46.875 25.5 46.875H13C10.5136 46.875 8.12903 45.8873 6.37087 44.1291C4.61272 42.371 3.625 39.9864 3.625 37.5V25C3.625 22.5136 4.61272 20.129 6.37087 18.3709C8.12903 16.6127 10.5136 15.625 13 15.625H16.125ZM30.1875 34.375V37.5C30.1875 38.7432 29.6936 39.9355 28.8146 40.8146C27.9355 41.6936 26.7432 42.1875 25.5 42.1875H13C11.7568 42.1875 10.5645 41.6936 9.68544 40.8146C8.80636 39.9355 8.3125 38.7432 8.3125 37.5V25C8.3125 23.7568 8.80636 22.5645 9.68544 21.6854C10.5645 20.8064 11.7568 20.3125 13 20.3125H16.125V25C16.125 27.4864 17.1127 29.871 18.8709 31.6291C20.629 33.3873 23.0136 34.375 25.5 34.375H30.1875ZM30.1875 29.6875H25.5C24.2568 29.6875 23.0645 29.1936 22.1854 28.3146C21.3064 27.4355 20.8125 26.2432 20.8125 25V20.3125H25.5C26.7432 20.3125 27.9355 20.8064 28.8146 21.6854C29.6936 22.5645 30.1875 23.7568 30.1875 25V29.6875Z" fill="#2E466D"/>
</svg>
